<svg width="16" height="11" viewBox="0 0 16 11" fill="none" xmlns="http://www.w3.org/2000/svg">
<path d="M10.6667 1.77778V8.88889H1.77778V1.77778H10.6667ZM11.5556 0H0.888889C0.653141 0 0.427048 0.0936507 0.260349 0.26035C0.0936505 0.427049 0 0.653141 0 0.888889V9.77778C0 10.0135 0.0936505 10.2396 0.260349 10.4063C0.427048 10.573 0.653141 10.6667 0.888889 10.6667H11.5556C11.7913 10.6667 12.0174 10.573 12.1841 10.4063C12.3508 10.2396 12.4444 10.0135 12.4444 9.77778V6.66667L16 10.2222V0.444444L12.4444 4V0.888889C12.4444 0.653141 12.3508 0.427049 12.1841 0.26035C12.0174 0.0936507 11.7913 0 11.5556 0Z" fill="#323130"/>
</svg>
