<svg width="16" height="12" viewBox="0 0 16 12" fill="none" xmlns="http://www.w3.org/2000/svg">
<path d="M1.33333 0H12.6667C13.0203 0 13.3594 0.140476 13.6095 0.390524C13.8595 0.640573 14 0.979711 14 1.33333V4H12.6667V1.33333H1.33333V10.6667H12.6667V8H14V10.6667C14 11.0203 13.8595 11.3594 13.6095 11.6095C13.3594 11.8595 13.0203 12 12.6667 12H1.33333C0.979711 12 0.640573 11.8595 0.390524 11.6095C0.140475 11.3594 0 11.0203 0 10.6667V1.33333C0 0.979711 0.140475 0.640573 0.390524 0.390524C0.640573 0.140476 0.979711 0 1.33333 0ZM11.3333 8V6.66667H16V5.33333H11.3333V4L8.66667 6L11.3333 8ZM2.66667 6.66667H7.33333V5.33333H2.66667V6.66667ZM2.66667 4H7.33333V2.66667H2.66667V4ZM4.66667 9.33333H7.33333V8H4.66667V9.33333Z" fill="#323130"/>
</svg>
