<svg width="16" height="12" viewBox="0 0 16 12" fill="none" xmlns="http://www.w3.org/2000/svg">
<path d="M2.344 0C0.896 1.448 0 3.448 0 5.656C0 7.864 0.896 9.864 2.344 11.312L3.472 10.184C2.312 9.032 1.6 7.432 1.6 5.656C1.6 3.888 2.312 2.28 3.472 1.128L2.344 0ZM13.656 0L12.528 1.128C13.688 2.28 14.4 3.888 14.4 5.656C14.4 7.432 13.688 9.032 12.528 10.184L13.656 11.312C15.104 9.864 16 7.864 16 5.656C16 3.448 15.104 1.448 13.656 0ZM4.608 2.264C3.736 3.136 3.2 4.336 3.2 5.656C3.2 6.976 3.736 8.176 4.608 9.048L5.736 7.92C5.16 7.344 4.8 6.544 4.8 5.656C4.8 4.768 5.16 3.968 5.736 3.392L4.608 2.264ZM11.392 2.264L10.264 3.392C10.84 3.968 11.2 4.768 11.2 5.656C11.2 6.544 10.84 7.344 10.264 7.92L11.392 9.048C12.264 8.176 12.8 6.976 12.8 5.656C12.8 4.336 12.264 3.136 11.392 2.264ZM8 4.056C7.57565 4.056 7.16869 4.22457 6.86863 4.52463C6.56857 4.82469 6.4 5.23165 6.4 5.656C6.4 6.08035 6.56857 6.48731 6.86863 6.78737C7.16869 7.08743 7.57565 7.256 8 7.256C8.42435 7.256 8.83131 7.08743 9.13137 6.78737C9.43143 6.48731 9.6 6.08035 9.6 5.656C9.6 5.23165 9.43143 4.82469 9.13137 4.52463C8.83131 4.22457 8.42435 4.056 8 4.056Z" fill="#323130"/>
</svg>
