<svg width="46" height="43" viewBox="0 0 46 43" fill="none" xmlns="http://www.w3.org/2000/svg">
<path d="M40.4769 29.0882C40.4769 29.0882 35.4181 34.5771 35.4181 37.9412C35.4181 39.2829 35.9511 40.5696 36.8998 41.5183C37.8485 42.467 39.1352 43 40.4769 43C41.8186 43 43.1053 42.467 44.054 41.5183C45.0028 40.5696 45.5357 39.2829 45.5357 37.9412C45.5357 34.5771 40.4769 29.0882 40.4769 29.0882ZM5.59632 25.2941L17.7122 13.1782L29.8281 25.2941H5.59632ZM34.3051 22.6129L11.6922 0L8.12574 3.56647L14.1457 9.58647L1.11926 22.6129C-0.373088 24.0294 -0.373088 26.4829 1.11926 27.9753L15.031 41.8871C15.7646 42.6206 16.751 43 17.7122 43C18.6734 43 19.6599 42.6206 20.3934 41.8871L34.3051 27.9753C35.7975 26.4829 35.7975 24.0294 34.3051 22.6129Z" fill="#E71C23"/>
</svg>
