<svg width="20" height="20" viewBox="0 0 20 20" fill="none" xmlns="http://www.w3.org/2000/svg">
<path fill-rule="evenodd" clip-rule="evenodd" d="M3.23223 1.56556C3.70107 1.09672 4.33696 0.833328 5 0.833328H11.6667C11.8877 0.833328 12.0996 0.921126 12.2559 1.07741L17.2559 6.07741C17.4122 6.23369 17.5 6.44565 17.5 6.66666V16.6667C17.5 17.3297 17.2366 17.9656 16.7678 18.4344C16.2989 18.9033 15.663 19.1667 15 19.1667H5C4.33696 19.1667 3.70107 18.9033 3.23223 18.4344C2.76339 17.9656 2.5 17.3297 2.5 16.6667V3.33333C2.5 2.67029 2.76339 2.0344 3.23223 1.56556ZM5 2.49999C4.77899 2.49999 4.56702 2.58779 4.41074 2.74407C4.25446 2.90035 4.16667 3.11231 4.16667 3.33333V16.6667C4.16667 16.8877 4.25446 17.0996 4.41074 17.2559C4.56702 17.4122 4.77899 17.5 5 17.5H15C15.221 17.5 15.433 17.4122 15.5893 17.2559C15.7455 17.0996 15.8333 16.8877 15.8333 16.6667V7.01184L11.3215 2.49999H5Z" fill="#323130"/>
<path fill-rule="evenodd" clip-rule="evenodd" d="M11.6667 0.833328C12.1269 0.833328 12.5 1.20642 12.5 1.66666V5.83333H16.6667C17.1269 5.83333 17.5 6.20642 17.5 6.66666C17.5 7.1269 17.1269 7.49999 16.6667 7.49999H11.6667C11.2065 7.49999 10.8334 7.1269 10.8334 6.66666V1.66666C10.8334 1.20642 11.2065 0.833328 11.6667 0.833328Z" fill="#323130"/>
<path fill-rule="evenodd" clip-rule="evenodd" d="M5.83337 10.8333C5.83337 10.3731 6.20647 10 6.66671 10H13.3334C13.7936 10 14.1667 10.3731 14.1667 10.8333C14.1667 11.2936 13.7936 11.6667 13.3334 11.6667H6.66671C6.20647 11.6667 5.83337 11.2936 5.83337 10.8333Z" fill="#323130"/>
<path fill-rule="evenodd" clip-rule="evenodd" d="M5.83337 14.1667C5.83337 13.7064 6.20647 13.3333 6.66671 13.3333H13.3334C13.7936 13.3333 14.1667 13.7064 14.1667 14.1667C14.1667 14.6269 13.7936 15 13.3334 15H6.66671C6.20647 15 5.83337 14.6269 5.83337 14.1667Z" fill="#323130"/>
<path fill-rule="evenodd" clip-rule="evenodd" d="M5.83337 7.5C5.83337 7.03977 6.20647 6.66667 6.66671 6.66667H8.33337C8.79361 6.66667 9.16671 7.03977 9.16671 7.5C9.16671 7.96024 8.79361 8.33334 8.33337 8.33334H6.66671C6.20647 8.33334 5.83337 7.96024 5.83337 7.5Z" fill="#323130"/>
</svg>
