<svg width="59" height="43" viewBox="0 0 59 43" fill="none" xmlns="http://www.w3.org/2000/svg">
<path d="M10.7273 29.5625L9.11818 28.2188C3.75455 23.1125 0 19.8875 0 15.8562C0 12.6312 2.68182 9.94375 5.9 9.94375C7.77727 9.94375 9.65455 10.75 10.7273 12.0938C11.8 10.75 13.6773 9.94375 15.5545 9.94375C18.7727 9.94375 21.4545 12.3625 21.4545 15.8562C21.4545 19.8875 17.7 23.1125 12.3364 28.2188L10.7273 29.5625ZM37.5455 0C34.7004 0 31.9719 1.13259 29.9601 3.1486C27.9484 5.16462 26.8182 7.89892 26.8182 10.75C26.8182 13.6011 27.9484 16.3354 29.9601 18.3514C31.9719 20.3674 34.7004 21.5 37.5455 21.5C40.3905 21.5 43.119 20.3674 45.1308 18.3514C47.1425 16.3354 48.2727 13.6011 48.2727 10.75C48.2727 7.89892 47.1425 5.16462 45.1308 3.1486C43.119 1.13259 40.3905 0 37.5455 0ZM37.5455 16.3938C36.0518 16.3938 34.6193 15.7991 33.5632 14.7407C32.507 13.6823 31.9136 12.2468 31.9136 10.75C31.9136 9.25318 32.507 7.81767 33.5632 6.75927C34.6193 5.70086 36.0518 5.10625 37.5455 5.10625C40.6564 5.10625 43.1773 7.6325 43.1773 10.75C43.1773 13.8675 40.6564 16.3938 37.5455 16.3938ZM37.5455 24.1875C30.385 24.1875 16.0909 27.7619 16.0909 34.9375V43H59V34.9375C59 27.7619 44.7059 24.1875 37.5455 24.1875ZM53.9045 37.8937H21.1864V34.9375C21.1864 33.2175 29.5 29.2937 37.5455 29.2937C45.5105 29.2937 53.9045 33.2175 53.9045 34.9375V37.8937Z" fill="#E71C23"/>
</svg>
