<svg width="77" height="54" viewBox="0 0 77 54" fill="none" xmlns="http://www.w3.org/2000/svg">
<path fill-rule="evenodd" clip-rule="evenodd" d="M36.8444 16.7327C35.9042 17.3699 35.2919 17.1027 34.6797 16.9588C32.4493 16.4038 32.8867 16.9999 32.3181 18.2743C32.2088 18.5004 32.0995 18.747 31.7278 18.9937C30.7875 19.6309 30.219 18.9937 29.8691 19.2404L36.4071 21.933L39.2715 23.1252L42.5296 20.9053L42.2235 17.966L41.5019 11.3062C41.152 11.5529 41.6112 12.2518 40.6928 12.889C40.3211 13.1356 40.0369 13.1767 39.7745 13.1973C38.3094 13.3001 37.8503 12.7451 37.7191 14.9033C37.6972 15.4583 37.8065 16.0749 36.8444 16.7327ZM40.0806 23.4335L42.9669 24.6257L42.6608 21.6864L40.0806 23.4335Z" fill="#E50E0E"/>
<path fill-rule="evenodd" clip-rule="evenodd" d="M27.8792 5.1193C28.8851 4.42044 30.3282 4.62599 31.0498 5.5715L36.7787 12.9712C37.5003 13.9167 37.2816 15.2528 36.2539 15.9516C35.2481 16.6505 33.8049 16.4449 33.0834 15.4994L27.3545 8.09972C26.6329 7.15421 26.8515 5.7976 27.8792 5.1193Z" fill="#3D3D3D"/>
<path fill-rule="evenodd" clip-rule="evenodd" d="M24.971 10.2168C25.7145 9.72352 26.7422 9.8674 27.267 10.5457L31.5308 16.0544C32.0556 16.7327 31.8807 17.6987 31.1591 18.2126C30.4375 18.7059 29.388 18.562 28.8632 17.8837L24.5993 12.3751C24.0745 11.6762 24.2276 10.7101 24.971 10.2168Z" fill="#3D3D3D"/>
<path fill-rule="evenodd" clip-rule="evenodd" d="M33.9361 4.09153C33.1927 4.58484 33.0396 5.55091 33.5644 6.24977L37.8283 11.7584C38.3531 12.4367 39.3808 12.5806 40.1242 12.0873C40.8676 11.594 41.0207 10.6279 40.4959 9.92905L36.232 4.4204C35.6854 3.7421 34.6577 3.59821 33.9361 4.09153Z" fill="#3D3D3D"/>
<path fill-rule="evenodd" clip-rule="evenodd" d="M22.6533 7.23643C23.3749 6.74311 24.3589 6.88699 24.8837 7.5653C25.3866 8.22305 25.2335 9.16856 24.5119 9.66188C23.7904 10.1552 22.8064 10.0113 22.2816 9.333C21.7787 8.6547 21.9536 7.72974 22.6533 7.23643Z" fill="#3D3D3D"/>
<path fill-rule="evenodd" clip-rule="evenodd" d="M31.6184 1.11112C32.34 0.617806 33.324 0.76169 33.8488 1.43999C34.3517 2.09774 34.1986 3.04326 33.477 3.53658C32.7555 4.02989 31.7715 3.886 31.2467 3.2077C30.7438 2.52939 30.9187 1.60443 31.6184 1.11112Z" fill="#3D3D3D"/>
<path fill-rule="evenodd" clip-rule="evenodd" d="M24.315 0.515035C25.5832 -0.348262 27.3325 -0.101603 28.229 1.07001C29.1255 2.24163 28.8412 3.886 27.5949 4.7493C26.3266 5.6126 24.5774 5.36594 23.6808 4.19432C22.7625 3.0227 23.0686 1.37833 24.315 0.515035Z" fill="#E50E0E"/>
<path d="M14.672 49.2296C14.6501 49.1885 14.6501 49.1269 14.6501 49.1063C14.6501 49.0035 14.7376 48.9008 14.8688 48.9008C15 48.9008 15.0875 48.983 15.1312 49.1063L16.0058 51.5523H16.0277L16.9023 49.1063C16.9461 48.983 17.0335 48.9008 17.1647 48.9008C17.2959 48.9008 17.3834 49.0035 17.3834 49.1063C17.3834 49.1474 17.3834 49.1885 17.3615 49.2296L15.809 53.4433C15.7653 53.5872 15.6779 53.6694 15.5467 53.6694C15.3936 53.6694 15.328 53.5667 15.328 53.4845C15.328 53.4228 15.3499 53.3611 15.3717 53.2995L15.809 52.2101L14.672 49.2296Z" fill="#3D3D3D"/>
<path d="M19.1108 52.3334C18.0831 52.3334 17.5583 51.5523 17.5583 50.6068C17.5583 49.764 18.0613 48.8802 19.1108 48.8802C20.1604 48.8802 20.6633 49.764 20.6633 50.6068C20.6633 51.5729 20.1604 52.3334 19.1108 52.3334ZM19.1108 51.9634C19.8762 51.9634 20.1385 51.244 20.1385 50.6273C20.1385 50.0107 19.8762 49.2913 19.1108 49.2913C18.3455 49.2913 18.0831 50.0313 18.0831 50.6273C18.105 51.2234 18.3674 51.9634 19.1108 51.9634Z" fill="#3D3D3D"/>
<path d="M21.2319 49.1885C21.2319 49.0035 21.3194 48.9008 21.4725 48.9008C21.6255 48.9008 21.713 49.0035 21.713 49.1885V51.0796C21.713 51.6551 22.041 51.9634 22.5876 51.9634C23.1343 51.9634 23.4623 51.6551 23.4623 51.0796V49.1885C23.4623 49.0035 23.5497 48.9008 23.7028 48.9008C23.8559 48.9008 23.9433 49.0035 23.9433 49.1885V51.2029C23.9433 51.9429 23.3529 52.3539 22.5876 52.3539C21.8223 52.3539 21.2319 51.9429 21.2319 51.2029V49.1885Z" fill="#3D3D3D"/>
<path d="M25.2115 52.0456C25.2115 52.2306 25.1241 52.3334 24.971 52.3334C24.8179 52.3334 24.7305 52.2306 24.7305 52.0456V49.168C24.7305 48.983 24.8179 48.8802 24.971 48.8802C25.1241 48.8802 25.2115 48.983 25.2115 49.168V49.4763H25.2334C25.4083 49.1063 25.7144 48.8596 26.0206 48.8596C26.2611 48.8596 26.3486 48.983 26.3486 49.1063C26.3486 49.2296 26.2611 49.3119 26.0206 49.353C25.7582 49.4146 25.2334 49.6202 25.2334 50.3807V52.0456H25.2115Z" fill="#3D3D3D"/>
<path d="M28.6883 52.0456C28.6883 52.2306 28.6009 52.3334 28.4478 52.3334C28.2947 52.3334 28.2073 52.2306 28.2073 52.0456V47.688C28.2073 47.503 28.2947 47.4003 28.4478 47.4003C28.6009 47.4003 28.6883 47.503 28.6883 47.688V52.0456Z" fill="#3D3D3D"/>
<path d="M29.7816 50.8123C29.8035 51.4084 30.2189 51.9634 30.8531 51.9634C31.6184 51.9634 31.8152 51.4495 32.0557 51.4495C32.1869 51.4495 32.2744 51.4906 32.2744 51.6756C32.2744 51.8812 31.7058 52.3539 30.8749 52.3539C29.716 52.3539 29.2568 51.4701 29.2568 50.6273C29.2568 49.7846 29.7816 48.9008 30.8093 48.9008C31.8152 48.9008 32.34 49.7024 32.34 50.5451C32.34 50.6685 32.2962 50.8329 32.012 50.8329H29.7816V50.8123ZM31.8152 50.4424C31.7933 49.8874 31.4653 49.2707 30.8093 49.2707C30.1533 49.2707 29.8254 49.8668 29.8035 50.4424H31.8152Z" fill="#3D3D3D"/>
<path d="M35.1826 49.1885C35.1826 49.0035 35.2701 48.9008 35.4231 48.9008C35.5762 48.9008 35.6637 49.0035 35.6637 49.1885V52.0662C35.6637 52.2512 35.5762 52.3539 35.4231 52.3539C35.2701 52.3539 35.1826 52.2512 35.1826 52.0662V51.8606H35.1607C34.9421 52.1895 34.5922 52.3539 34.1768 52.3539C33.1491 52.3539 32.6243 51.5729 32.6243 50.6273C32.6243 49.7846 33.1272 48.9008 34.1549 48.9008C34.5703 48.9008 34.8765 49.0652 35.1607 49.3941H35.1826V49.1885ZM34.1768 51.9634C34.9421 51.9634 35.1826 51.244 35.1826 50.6273C35.1826 50.0107 34.9202 49.2913 34.1768 49.2913C33.4333 49.2913 33.1491 50.0313 33.1491 50.6273C33.1491 51.2234 33.4333 51.9634 34.1768 51.9634Z" fill="#3D3D3D"/>
<path d="M36.91 52.0456C36.91 52.2306 36.8225 52.3334 36.6695 52.3334C36.5164 52.3334 36.429 52.2306 36.429 52.0456V49.168C36.429 48.983 36.5164 48.8802 36.6695 48.8802C36.8225 48.8802 36.91 48.983 36.91 49.168V49.4763H36.9319C37.1068 49.1063 37.4129 48.8596 37.7191 48.8596C37.9596 48.8596 38.047 48.983 38.047 49.1063C38.047 49.2296 37.9596 49.3119 37.7191 49.353C37.4567 49.4146 36.9319 49.6202 36.9319 50.3807V52.0456H36.91Z" fill="#3D3D3D"/>
<path d="M38.9215 52.0456C38.9215 52.2306 38.834 52.3334 38.681 52.3334C38.5279 52.3334 38.4404 52.2306 38.4404 52.0456V49.168C38.4404 48.983 38.5279 48.8802 38.681 48.8802C38.834 48.8802 38.9215 48.983 38.9215 49.168V49.3324H38.9434C39.1183 49.0857 39.4244 48.8802 39.8836 48.8802C40.5177 48.8802 41.1737 49.2707 41.1737 50.0929V52.0456C41.1737 52.2306 41.0862 52.3334 40.9332 52.3334C40.7801 52.3334 40.6926 52.2306 40.6926 52.0456V50.0724C40.6926 49.5996 40.3646 49.2913 39.818 49.2913C39.3588 49.2913 38.9434 49.5996 38.9434 50.1751V52.0456H38.9215Z" fill="#3D3D3D"/>
<path d="M42.1578 47.7497C42.3328 47.7497 42.4858 47.8936 42.4858 48.058C42.4858 48.2225 42.3328 48.3663 42.1578 48.3663C41.9829 48.3663 41.8298 48.2225 41.8298 48.058C41.8298 47.8936 41.961 47.7497 42.1578 47.7497ZM42.3984 52.0456C42.3984 52.2306 42.3109 52.3334 42.1578 52.3334C42.0048 52.3334 41.9173 52.2306 41.9173 52.0456V49.168C41.9173 48.983 42.0048 48.8802 42.1578 48.8802C42.3109 48.8802 42.3984 48.983 42.3984 49.168V52.0456Z" fill="#3D3D3D"/>
<path d="M43.6446 52.0456C43.6446 52.2306 43.5572 52.3334 43.4041 52.3334C43.251 52.3334 43.1636 52.2306 43.1636 52.0456V49.168C43.1636 48.983 43.251 48.8802 43.4041 48.8802C43.5572 48.8802 43.6446 48.983 43.6446 49.168V49.3324H43.6665C43.8414 49.0857 44.1475 48.8802 44.6067 48.8802C45.2409 48.8802 45.8968 49.2707 45.8968 50.0929V52.0456C45.8968 52.2306 45.8094 52.3334 45.6563 52.3334C45.5032 52.3334 45.4158 52.2306 45.4158 52.0456V50.0724C45.4158 49.5996 45.0878 49.2913 44.5411 49.2913C44.0819 49.2913 43.6665 49.5996 43.6665 50.1751V52.0456H43.6446Z" fill="#3D3D3D"/>
<path d="M49.0238 49.1885C49.0238 49.0035 49.1113 48.9008 49.2643 48.9008C49.4174 48.9008 49.5049 49.0035 49.5049 49.1885V52.1484C49.5049 53.1967 48.7177 53.6694 47.9305 53.6694C47.2089 53.6694 46.5529 53.2789 46.5529 53.0528C46.5529 52.9295 46.6185 52.8267 46.7935 52.8267C46.9903 52.8267 47.3182 53.2583 47.8868 53.2583C48.4553 53.2583 49.0238 52.95 49.0238 52.1895V51.8401H49.0019C48.7833 52.1895 48.4334 52.3539 47.9961 52.3539C46.9684 52.3539 46.4436 51.5729 46.4436 50.6273C46.4436 49.7846 46.9465 48.9008 47.9742 48.9008C48.3897 48.9008 48.7833 49.1269 48.9801 49.3941H49.0019V49.1885H49.0238ZM47.9961 51.9634C48.6521 51.9634 49.0238 51.4084 49.0238 50.9357V50.2985C49.0238 49.8257 48.6521 49.2707 47.9961 49.2707C47.2308 49.2707 46.9684 50.0107 46.9684 50.6068C46.9903 51.2234 47.2526 51.9634 47.9961 51.9634Z" fill="#3D3D3D"/>
<path d="M52.2379 52.0456C52.2379 52.2306 52.1504 52.3334 51.9974 52.3334C51.8443 52.3334 51.7568 52.2306 51.7568 52.0456V47.688C51.7568 47.503 51.8443 47.4003 51.9974 47.4003C52.1504 47.4003 52.2379 47.503 52.2379 47.688V49.3324H52.2598C52.4347 49.0858 52.7408 48.8802 53.2 48.8802C53.8341 48.8802 54.4901 49.2707 54.4901 50.0929V52.0456C54.4901 52.2306 54.4026 52.3334 54.2496 52.3334C54.0965 52.3334 54.009 52.2306 54.009 52.0456V50.0724C54.009 49.5996 53.6811 49.2913 53.1344 49.2913C52.6752 49.2913 52.2598 49.5996 52.2598 50.1752V52.0456H52.2379Z" fill="#3D3D3D"/>
<path d="M55.2336 49.1885C55.2336 49.0035 55.3211 48.9008 55.4742 48.9008C55.6272 48.9008 55.7147 49.0035 55.7147 49.1885V51.0796C55.7147 51.6551 56.0427 51.9634 56.5893 51.9634C57.136 51.9634 57.464 51.6551 57.464 51.0796V49.1885C57.464 49.0035 57.5514 48.9008 57.7045 48.9008C57.8576 48.9008 57.945 49.0035 57.945 49.1885V51.2029C57.945 51.9429 57.3546 52.3539 56.5893 52.3539C55.824 52.3539 55.2336 51.9429 55.2336 51.2029V49.1885Z" fill="#3D3D3D"/>
<path d="M58.7104 47.688C58.7104 47.503 58.7979 47.4003 58.951 47.4003C59.104 47.4003 59.1915 47.503 59.1915 47.688V49.3735H59.2134C59.4976 49.0446 59.8038 48.8802 60.2192 48.8802C61.2688 48.8802 61.7498 49.7641 61.7498 50.6068C61.7498 51.5523 61.2469 52.3334 60.1973 52.3334C59.7819 52.3334 59.4102 52.169 59.2134 51.8401H59.1915V52.0456C59.1915 52.2306 59.104 52.3334 58.951 52.3334C58.7979 52.3334 58.7104 52.2306 58.7104 52.0456V47.688ZM60.2192 51.9634C60.9845 51.9634 61.2469 51.244 61.2469 50.6273C61.2469 50.0107 60.9845 49.2913 60.2192 49.2913C59.4539 49.2913 59.1915 50.0313 59.1915 50.6273C59.1915 51.2234 59.4539 51.9634 60.2192 51.9634Z" fill="#3D3D3D"/>
<path d="M8.3091 31.717C8.3091 32.1281 7.98111 32.4981 7.50006 32.4981C6.66915 32.4981 6.40676 31.5732 4.52627 31.5732C3.14871 31.5732 2.14287 32.3953 2.14287 33.5875C2.14287 36.7118 9.29308 35.2113 9.29308 40.0006C9.29308 42.3438 7.47819 44.4815 4.19828 44.4815C2.20847 44.4815 0 43.7621 0 42.7755C0 42.3027 0.262391 41.8711 0.787176 41.8711C1.42129 41.8711 2.3178 42.9605 4.22015 42.9605C6.14436 42.9605 7.30326 41.6449 7.30326 40.0828C7.30326 36.7118 0.153062 38.3562 0.153062 33.7108C0.153062 32.0665 1.81488 30.0727 4.59187 30.0727C6.47235 30.0727 8.3091 30.8126 8.3091 31.717Z" fill="#3D3D3D"/>
<path d="M19.6577 43.6182C19.6577 44.2348 19.1548 44.4815 18.7831 44.4815C18.4113 44.4815 17.9084 44.2348 17.9084 43.6182V42.8782H17.8647C17.0556 43.9471 16.0061 44.4609 14.8034 44.4609C11.6329 44.4609 9.83984 41.8505 9.83984 39.055C9.83984 36.2391 11.611 33.6492 14.8034 33.6492C16.0935 33.6492 17.0119 34.163 17.8647 35.0674H17.9084V34.5125C17.9084 33.8958 18.3895 33.6492 18.7831 33.6492C19.1329 33.6492 19.6577 33.8958 19.6577 34.5125V43.6182ZM14.8034 42.9604C17.0994 42.9604 17.8866 40.8433 17.8866 39.055C17.8866 37.2668 17.0775 35.1497 14.8034 35.1497C12.5075 35.1497 11.7203 37.2668 11.7203 39.055C11.7203 40.8639 12.5294 42.9604 14.8034 42.9604Z" fill="#3D3D3D"/>
<path d="M21.5601 29.9288C21.5601 29.3533 21.9099 28.9833 22.5003 28.9833C23.0688 28.9833 23.4405 29.3327 23.4405 29.9288V35.088H23.4843C23.9653 34.4303 25.0149 33.6492 26.4799 33.6492C29.5193 33.6492 31.2905 36.2596 31.2905 39.0551C31.2905 41.8711 29.5412 44.4609 26.4799 44.4609C24.993 44.4609 24.0091 43.9676 23.4843 43.0016H23.4405V43.5154C23.4405 44.091 23.0907 44.4404 22.5003 44.4404C21.9318 44.4404 21.5601 44.091 21.5601 43.5154V29.9288ZM26.3269 42.9605C28.6228 42.9605 29.41 40.8433 29.41 39.0551C29.41 37.2668 28.6009 35.1497 26.3269 35.1497C24.0309 35.1497 23.2437 37.2668 23.2437 39.0551C23.2437 40.8639 24.0309 42.9605 26.3269 42.9605Z" fill="#3D3D3D"/>
<path d="M33.5426 30.0727C34.1767 30.0727 34.6796 30.5454 34.6796 31.1415C34.6796 31.7376 34.1767 32.2104 33.5426 32.2104C32.9084 32.2104 32.4055 31.7376 32.4055 31.1415C32.4055 30.5454 32.9084 30.0727 33.5426 30.0727ZM34.4828 43.536C34.4828 44.1115 34.1329 44.4815 33.5426 44.4815C32.974 44.4815 32.6023 44.1321 32.6023 43.536V34.5741C32.6023 33.9986 32.9522 33.6286 33.5426 33.6286C34.1111 33.6286 34.4828 33.9781 34.4828 34.5741V43.536Z" fill="#3D3D3D"/>
<path d="M35.9039 31.6348C35.9039 30.6482 36.5818 30.0727 37.5002 30.0727C37.8938 30.0727 38.5497 30.381 38.834 30.7304L45.5469 39.1578H45.5906V31.6348C45.5906 30.6482 46.2685 30.0727 47.1868 30.0727C48.1052 30.0727 48.7831 30.6276 48.7831 31.6348V42.9399C48.7831 43.9265 48.1052 44.5021 47.1868 44.5021C46.7932 44.5021 46.1591 44.1937 45.853 43.8443L39.1183 35.4991H39.0745V42.9193C39.0745 43.906 38.3967 44.4815 37.4783 44.4815C36.5599 44.4815 35.8821 43.9265 35.8821 42.9193V31.6348H35.9039Z" fill="#E50E0E"/>
<path d="M60.2848 39.0962C60.2848 42.0766 58.0982 44.6048 54.8183 44.6048C51.5384 44.6048 49.3518 42.0766 49.3518 39.0962C49.3518 36.198 51.604 33.5464 54.8183 33.5464C58.0326 33.5259 60.2848 36.1774 60.2848 39.0962ZM52.4131 39.0962C52.4131 40.4733 53.1784 41.9738 54.8183 41.9738C56.4801 41.9738 57.2236 40.4528 57.2236 39.0962C57.2236 37.719 56.4801 36.1774 54.8183 36.1774C53.1565 36.1569 52.4131 37.719 52.4131 39.0962Z" fill="#E50E0E"/>
<path d="M60.5472 36.1568C60.3286 35.5813 60.2192 35.2319 60.2192 34.8002C60.2192 34.163 60.8534 33.6492 61.7499 33.6492C62.4933 33.6492 63.0181 34.1014 63.193 34.7797L64.9423 40.2472H64.986L66.7572 34.903C66.9977 34.1219 67.4132 33.6492 68.3097 33.6492C69.2062 33.6492 69.6216 34.1219 69.8622 34.903L71.6333 40.2472H71.6771L73.4263 34.7797C73.6013 34.1014 74.1261 33.6492 74.8695 33.6492C75.766 33.6492 76.4001 34.163 76.4001 35.0469C76.4001 35.3758 76.2471 35.6841 76.094 36.1157L73.4919 43.0221C73.1639 43.8648 72.6392 44.4815 71.6552 44.4815C70.7149 44.4815 70.1683 43.9882 69.9059 43.1454L68.3315 38.5206H68.2878L66.7135 43.1454C66.4292 43.9882 65.8826 44.4815 64.9642 44.4815C63.9802 44.4815 63.4335 43.8648 63.1274 43.0221L60.5472 36.1568Z" fill="#E50E0E"/>
</svg>
