<svg width="40" height="44" viewBox="0 0 40 44" fill="none" xmlns="http://www.w3.org/2000/svg">
<path d="M17.5909 0.101196V7.91938H13.6818L21.5 15.7376L29.3182 7.91938H25.4091V0.101196H17.5909ZM0 4.01029V7.91938H3.90909L10.9455 22.7544L8.30682 27.543C7.99409 28.0903 7.81818 28.7353 7.81818 29.4194C7.81818 30.4561 8.23003 31.4504 8.96313 32.1835C9.69623 32.9166 10.6905 33.3285 11.7273 33.3285H35.1818V29.4194H12.5482C12.2941 29.4194 12.0595 29.2044 12.0595 28.9307L12.1182 28.6962L13.8773 25.5103H28.4386C29.9045 25.5103 31.1945 24.7089 31.8591 23.4971L39.4036 9.79574L36.0027 7.91938H35.9832L33.8332 11.8285L28.4386 21.6012H14.7177L14.4636 21.0735L10.0855 11.8285L8.22864 7.91938L6.39136 4.01029H0ZM11.7273 35.283C10.6905 35.283 9.69623 35.6949 8.96313 36.428C8.23003 37.1611 7.81818 38.1553 7.81818 39.1921C7.81818 40.2289 8.23003 41.2232 8.96313 41.9562C9.69623 42.6893 10.6905 43.1012 11.7273 43.1012C12.764 43.1012 13.7583 42.6893 14.4914 41.9562C15.2245 41.2232 15.6364 40.2289 15.6364 39.1921C15.6364 38.1553 15.2245 37.1611 14.4914 36.428C13.7583 35.6949 12.764 35.283 11.7273 35.283ZM31.2727 35.283C30.236 35.283 29.2417 35.6949 28.5086 36.428C27.7755 37.1611 27.3636 38.1553 27.3636 39.1921C27.3636 40.2289 27.7755 41.2232 28.5086 41.9562C29.2417 42.6893 30.236 43.1012 31.2727 43.1012C32.3095 43.1012 33.3038 42.6893 34.0369 41.9562C34.77 41.2232 35.1818 40.2289 35.1818 39.1921C35.1818 38.1553 34.77 37.1611 34.0369 36.428C33.3038 35.6949 32.3095 35.283 31.2727 35.283Z" fill="#E71C23"/>
</svg>
