<svg width="17" height="20" viewBox="0 0 17 20" fill="none" xmlns="http://www.w3.org/2000/svg">
<path d="M16.1053 16.2526C16.3579 16.1263 16.5474 15.8737 16.5474 15.5579V5.45263C16.5474 4.86316 16.0632 4.37895 15.4737 4.37895H12.1474C11.3684 1.85263 8.98947 0 6.21053 0C2.77895 0 0 2.77895 0 6.21053C0 9.05263 1.91579 11.4526 4.52632 12.1895V17.4105C4.52632 18.8421 5.68421 20 7.11579 20H15.7684C16.1263 20 16.4211 19.7684 16.5053 19.4105C16.5895 19.0737 16.4211 18.7158 16.1053 18.5474C15.6632 18.3158 15.3895 17.8947 15.3895 17.3895C15.4316 16.9053 15.6842 16.4842 16.1053 16.2526ZM1.26316 6.21053C1.26316 3.47368 3.49474 1.26316 6.21053 1.26316C8.94737 1.26316 11.1579 3.49474 11.1579 6.21053C11.1579 8.92632 8.94737 11.1579 6.21053 11.1579C3.47368 11.1579 1.26316 8.94737 1.26316 6.21053ZM14.1053 18.4842H7.11579C6.52632 18.4842 6.04211 18 6.04211 17.4105C6.04211 16.8211 6.52632 16.3368 7.11579 16.3368H14.1053C13.9789 16.6737 13.8947 17.0316 13.8947 17.4105C13.8947 17.7895 13.9789 18.1474 14.1053 18.4842Z" fill="black"/>
<path d="M7.11583 4.44211C7.24215 4.69474 7.22109 4.98948 7.07372 5.2C6.9053 5.43158 6.75793 5.53685 6.56846 5.66316C6.12636 5.97895 5.74741 6.31579 5.6632 7.24211C5.6632 7.34737 5.68425 7.45264 5.76846 7.53685C5.83162 7.62106 5.93688 7.66316 6.04215 7.66316H6.58951C6.77899 7.66316 6.94741 7.51579 6.96846 7.30527C6.98951 6.92632 7.07372 6.88421 7.32636 6.71579C7.53688 6.56842 7.83162 6.3579 8.12636 5.97895C8.56846 5.36842 8.63162 4.54737 8.29478 3.87369C7.91583 3.13685 7.15793 2.69474 6.27372 2.69474C4.77899 2.69474 4.1053 3.76842 3.97899 4.69474C3.95793 4.8 4.00004 4.90527 4.0632 4.98948C4.14741 5.07369 4.25267 5.11579 4.35793 5.11579H4.88425C5.07372 5.11579 5.22109 4.98948 5.2632 4.8C5.32636 4.42106 5.55793 3.97895 6.27372 3.97895C6.80004 3.9579 7.03162 4.25264 7.11583 4.44211Z" fill="black"/>
<path d="M6.31581 9.74736C6.74601 9.74736 7.09476 9.39862 7.09476 8.96842C7.09476 8.53821 6.74601 8.18947 6.31581 8.18947C5.88561 8.18947 5.53687 8.53821 5.53687 8.96842C5.53687 9.39862 5.88561 9.74736 6.31581 9.74736Z" fill="black"/>
</svg>
