<svg width="77" height="54" viewBox="0 0 77 54" fill="none" xmlns="http://www.w3.org/2000/svg">
<path fill-rule="evenodd" clip-rule="evenodd" d="M36.8443 16.7327C35.904 17.3699 35.2918 17.1027 34.6796 16.9588C32.4492 16.4038 32.8865 16.9999 32.318 18.2743C32.2087 18.5004 32.0994 18.747 31.7276 18.9937C30.7874 19.6309 30.2189 18.9937 29.869 19.2404L36.407 21.933L39.2714 23.1252L42.5295 20.9053L42.2233 17.966L41.5018 11.3062C41.1519 11.5529 41.6111 12.2518 40.6927 12.889C40.321 13.1356 40.0367 13.1767 39.7743 13.1973C38.3093 13.3001 37.8501 12.7451 37.7189 14.9033C37.6971 15.4583 37.8064 16.0749 36.8443 16.7327ZM40.0805 23.4335L42.9668 24.6257L42.6607 21.6864L40.0805 23.4335Z" fill="#E50E0E"/>
<path fill-rule="evenodd" clip-rule="evenodd" d="M27.8792 5.1193C28.8851 4.42044 30.3282 4.62599 31.0498 5.5715L36.7787 12.9712C37.5003 13.9167 37.2816 15.2528 36.2539 15.9516C35.2481 16.6505 33.8049 16.4449 33.0834 15.4994L27.3545 8.09972C26.6329 7.15421 26.8515 5.7976 27.8792 5.1193Z" fill="#3D3D3D"/>
<path fill-rule="evenodd" clip-rule="evenodd" d="M24.971 10.2168C25.7145 9.72352 26.7422 9.8674 27.267 10.5457L31.5308 16.0544C32.0556 16.7327 31.8807 17.6987 31.1591 18.2126C30.4375 18.7059 29.388 18.562 28.8632 17.8837L24.5993 12.3751C24.0745 11.6762 24.2276 10.7101 24.971 10.2168Z" fill="#3D3D3D"/>
<path fill-rule="evenodd" clip-rule="evenodd" d="M33.9361 4.09153C33.1927 4.58484 33.0396 5.55091 33.5644 6.24977L37.8283 11.7584C38.3531 12.4367 39.3808 12.5806 40.1242 12.0873C40.8676 11.594 41.0207 10.6279 40.4959 9.92905L36.232 4.4204C35.6854 3.7421 34.6577 3.59821 33.9361 4.09153Z" fill="#3D3D3D"/>
<path fill-rule="evenodd" clip-rule="evenodd" d="M22.6532 7.23643C23.3748 6.74311 24.3588 6.88699 24.8835 7.5653C25.3865 8.22305 25.2334 9.16856 24.5118 9.66188C23.7902 10.1552 22.8063 10.0113 22.2815 9.333C21.7786 8.6547 21.9535 7.72974 22.6532 7.23643Z" fill="#3D3D3D"/>
<path fill-rule="evenodd" clip-rule="evenodd" d="M31.6183 1.11112C32.3399 0.617806 33.3238 0.76169 33.8486 1.43999C34.3516 2.09774 34.1985 3.04326 33.4769 3.53658C32.7553 4.02989 31.7714 3.886 31.2466 3.2077C30.7437 2.52939 30.9186 1.60443 31.6183 1.11112Z" fill="#3D3D3D"/>
<path fill-rule="evenodd" clip-rule="evenodd" d="M24.3151 0.515035C25.5833 -0.348262 27.3326 -0.101603 28.2291 1.07001C29.1256 2.24163 28.8414 3.886 27.595 4.7493C26.3268 5.6126 24.5775 5.36594 23.681 4.19432C22.7626 3.0227 23.0687 1.37833 24.3151 0.515035Z" fill="#E50E0E"/>
<path d="M14.6721 49.2296C14.6503 49.1885 14.6503 49.1269 14.6503 49.1063C14.6503 49.0035 14.7377 48.9008 14.8689 48.9008C15.0001 48.9008 15.0876 48.983 15.1313 49.1063L16.006 51.5523H16.0278L16.9025 49.1063C16.9462 48.983 17.0337 48.9008 17.1649 48.9008C17.2961 48.9008 17.3835 49.0035 17.3835 49.1063C17.3835 49.1474 17.3835 49.1885 17.3617 49.2296L15.8092 53.4433C15.7654 53.5872 15.678 53.6694 15.5468 53.6694C15.3937 53.6694 15.3281 53.5667 15.3281 53.4845C15.3281 53.4228 15.35 53.3611 15.3718 53.2995L15.8092 52.2101L14.6721 49.2296Z" fill="#3D3D3D"/>
<path d="M19.111 52.3334C18.0833 52.3334 17.5585 51.5523 17.5585 50.6068C17.5585 49.764 18.0614 48.8802 19.111 48.8802C20.1605 48.8802 20.6635 49.764 20.6635 50.6068C20.6635 51.5729 20.1605 52.3334 19.111 52.3334ZM19.111 51.9634C19.8763 51.9634 20.1387 51.244 20.1387 50.6273C20.1387 50.0107 19.8763 49.2913 19.111 49.2913C18.3457 49.2913 18.0833 50.0313 18.0833 50.6273C18.1051 51.2234 18.3675 51.9634 19.111 51.9634Z" fill="#3D3D3D"/>
<path d="M21.2319 49.1885C21.2319 49.0035 21.3194 48.9008 21.4725 48.9008C21.6255 48.9008 21.713 49.0035 21.713 49.1885V51.0796C21.713 51.6551 22.041 51.9634 22.5876 51.9634C23.1343 51.9634 23.4623 51.6551 23.4623 51.0796V49.1885C23.4623 49.0035 23.5497 48.9008 23.7028 48.9008C23.8559 48.9008 23.9433 49.0035 23.9433 49.1885V51.2029C23.9433 51.9429 23.3529 52.3539 22.5876 52.3539C21.8223 52.3539 21.2319 51.9429 21.2319 51.2029V49.1885Z" fill="#3D3D3D"/>
<path d="M25.2115 52.0456C25.2115 52.2306 25.1241 52.3334 24.971 52.3334C24.8179 52.3334 24.7305 52.2306 24.7305 52.0456V49.168C24.7305 48.983 24.8179 48.8802 24.971 48.8802C25.1241 48.8802 25.2115 48.983 25.2115 49.168V49.4763H25.2334C25.4083 49.1063 25.7144 48.8596 26.0206 48.8596C26.2611 48.8596 26.3486 48.983 26.3486 49.1063C26.3486 49.2296 26.2611 49.3119 26.0206 49.353C25.7582 49.4146 25.2334 49.6202 25.2334 50.3807V52.0456H25.2115Z" fill="#3D3D3D"/>
<path d="M28.6882 52.0456C28.6882 52.2306 28.6007 52.3334 28.4477 52.3334C28.2946 52.3334 28.2072 52.2306 28.2072 52.0456V47.688C28.2072 47.503 28.2946 47.4003 28.4477 47.4003C28.6007 47.4003 28.6882 47.503 28.6882 47.688V52.0456Z" fill="#3D3D3D"/>
<path d="M29.7816 50.8123C29.8035 51.4084 30.2189 51.9634 30.8531 51.9634C31.6184 51.9634 31.8152 51.4495 32.0557 51.4495C32.1869 51.4495 32.2744 51.4906 32.2744 51.6756C32.2744 51.8812 31.7058 52.3539 30.8749 52.3539C29.716 52.3539 29.2568 51.4701 29.2568 50.6273C29.2568 49.7846 29.7816 48.9008 30.8093 48.9008C31.8152 48.9008 32.34 49.7024 32.34 50.5451C32.34 50.6685 32.2962 50.8329 32.012 50.8329H29.7816V50.8123ZM31.8152 50.4424C31.7933 49.8874 31.4653 49.2707 30.8093 49.2707C30.1533 49.2707 29.8254 49.8668 29.8035 50.4424H31.8152Z" fill="#3D3D3D"/>
<path d="M35.1825 49.1885C35.1825 49.0035 35.2699 48.9008 35.423 48.9008C35.5761 48.9008 35.6635 49.0035 35.6635 49.1885V52.0662C35.6635 52.2512 35.5761 52.3539 35.423 52.3539C35.2699 52.3539 35.1825 52.2512 35.1825 52.0662V51.8606H35.1606C34.9419 52.1895 34.5921 52.3539 34.1766 52.3539C33.1489 52.3539 32.6241 51.5729 32.6241 50.6273C32.6241 49.7846 33.1271 48.9008 34.1548 48.9008C34.5702 48.9008 34.8764 49.0652 35.1606 49.3941H35.1825V49.1885ZM34.1766 51.9634C34.9419 51.9634 35.1825 51.244 35.1825 50.6273C35.1825 50.0107 34.9201 49.2913 34.1766 49.2913C33.4332 49.2913 33.1489 50.0313 33.1489 50.6273C33.1489 51.2234 33.4332 51.9634 34.1766 51.9634Z" fill="#3D3D3D"/>
<path d="M36.9099 52.0456C36.9099 52.2306 36.8224 52.3334 36.6694 52.3334C36.5163 52.3334 36.4288 52.2306 36.4288 52.0456V49.168C36.4288 48.983 36.5163 48.8802 36.6694 48.8802C36.8224 48.8802 36.9099 48.983 36.9099 49.168V49.4763H36.9317C37.1067 49.1063 37.4128 48.8596 37.7189 48.8596C37.9595 48.8596 38.0469 48.983 38.0469 49.1063C38.0469 49.2296 37.9595 49.3119 37.7189 49.353C37.4565 49.4146 36.9317 49.6202 36.9317 50.3807V52.0456H36.9099Z" fill="#3D3D3D"/>
<path d="M38.9216 52.0456C38.9216 52.2306 38.8341 52.3334 38.6811 52.3334C38.528 52.3334 38.4406 52.2306 38.4406 52.0456V49.168C38.4406 48.983 38.528 48.8802 38.6811 48.8802C38.8341 48.8802 38.9216 48.983 38.9216 49.168V49.3324H38.9435C39.1184 49.0857 39.4245 48.8802 39.8837 48.8802C40.5178 48.8802 41.1738 49.2707 41.1738 50.0929V52.0456C41.1738 52.2306 41.0863 52.3334 40.9333 52.3334C40.7802 52.3334 40.6928 52.2306 40.6928 52.0456V50.0724C40.6928 49.5996 40.3648 49.2913 39.8181 49.2913C39.3589 49.2913 38.9435 49.5996 38.9435 50.1751V52.0456H38.9216Z" fill="#3D3D3D"/>
<path d="M42.1577 47.7497C42.3326 47.7497 42.4857 47.8936 42.4857 48.058C42.4857 48.2225 42.3326 48.3663 42.1577 48.3663C41.9828 48.3663 41.8297 48.2225 41.8297 48.058C41.8297 47.8936 41.9609 47.7497 42.1577 47.7497ZM42.3982 52.0456C42.3982 52.2306 42.3108 52.3334 42.1577 52.3334C42.0046 52.3334 41.9172 52.2306 41.9172 52.0456V49.168C41.9172 48.983 42.0046 48.8802 42.1577 48.8802C42.3108 48.8802 42.3982 48.983 42.3982 49.168V52.0456Z" fill="#3D3D3D"/>
<path d="M43.6446 52.0456C43.6446 52.2306 43.5572 52.3334 43.4041 52.3334C43.251 52.3334 43.1636 52.2306 43.1636 52.0456V49.168C43.1636 48.983 43.251 48.8802 43.4041 48.8802C43.5572 48.8802 43.6446 48.983 43.6446 49.168V49.3324H43.6665C43.8414 49.0857 44.1475 48.8802 44.6067 48.8802C45.2409 48.8802 45.8968 49.2707 45.8968 50.0929V52.0456C45.8968 52.2306 45.8094 52.3334 45.6563 52.3334C45.5032 52.3334 45.4158 52.2306 45.4158 52.0456V50.0724C45.4158 49.5996 45.0878 49.2913 44.5411 49.2913C44.0819 49.2913 43.6665 49.5996 43.6665 50.1751V52.0456H43.6446Z" fill="#3D3D3D"/>
<path d="M49.0237 49.1885C49.0237 49.0035 49.1111 48.9008 49.2642 48.9008C49.4173 48.9008 49.5047 49.0035 49.5047 49.1885V52.1484C49.5047 53.1967 48.7175 53.6694 47.9304 53.6694C47.2088 53.6694 46.5528 53.2789 46.5528 53.0528C46.5528 52.9295 46.6184 52.8267 46.7933 52.8267C46.9901 52.8267 47.3181 53.2583 47.8866 53.2583C48.4552 53.2583 49.0237 52.95 49.0237 52.1895V51.8401H49.0018C48.7832 52.1895 48.4333 52.3539 47.996 52.3539C46.9683 52.3539 46.4435 51.5729 46.4435 50.6273C46.4435 49.7846 46.9464 48.9008 47.9741 48.9008C48.3896 48.9008 48.7832 49.1269 48.9799 49.3941H49.0018V49.1885H49.0237ZM47.996 51.9634C48.652 51.9634 49.0237 51.4084 49.0237 50.9357V50.2985C49.0237 49.8257 48.652 49.2707 47.996 49.2707C47.2307 49.2707 46.9683 50.0107 46.9683 50.6068C46.9901 51.2234 47.2525 51.9634 47.996 51.9634Z" fill="#3D3D3D"/>
<path d="M52.238 52.0456C52.238 52.2306 52.1505 52.3334 51.9975 52.3334C51.8444 52.3334 51.757 52.2306 51.757 52.0456V47.688C51.757 47.503 51.8444 47.4003 51.9975 47.4003C52.1505 47.4003 52.238 47.503 52.238 47.688V49.3324H52.2599C52.4348 49.0858 52.7409 48.8802 53.2001 48.8802C53.8342 48.8802 54.4902 49.2707 54.4902 50.0929V52.0456C54.4902 52.2306 54.4028 52.3334 54.2497 52.3334C54.0966 52.3334 54.0092 52.2306 54.0092 52.0456V50.0724C54.0092 49.5996 53.6812 49.2913 53.1345 49.2913C52.6753 49.2913 52.2599 49.5996 52.2599 50.1752V52.0456H52.238Z" fill="#3D3D3D"/>
<path d="M55.2336 49.1885C55.2336 49.0035 55.3211 48.9008 55.4742 48.9008C55.6272 48.9008 55.7147 49.0035 55.7147 49.1885V51.0796C55.7147 51.6551 56.0427 51.9634 56.5893 51.9634C57.136 51.9634 57.464 51.6551 57.464 51.0796V49.1885C57.464 49.0035 57.5514 48.9008 57.7045 48.9008C57.8576 48.9008 57.945 49.0035 57.945 49.1885V51.2029C57.945 51.9429 57.3546 52.3539 56.5893 52.3539C55.824 52.3539 55.2336 51.9429 55.2336 51.2029V49.1885Z" fill="#3D3D3D"/>
<path d="M58.7103 47.688C58.7103 47.503 58.7978 47.4003 58.9509 47.4003C59.1039 47.4003 59.1914 47.503 59.1914 47.688V49.3735H59.2132C59.4975 49.0446 59.8036 48.8802 60.2191 48.8802C61.2687 48.8802 61.7497 49.7641 61.7497 50.6068C61.7497 51.5523 61.2468 52.3334 60.1972 52.3334C59.7818 52.3334 59.41 52.169 59.2132 51.8401H59.1914V52.0456C59.1914 52.2306 59.1039 52.3334 58.9509 52.3334C58.7978 52.3334 58.7103 52.2306 58.7103 52.0456V47.688ZM60.2191 51.9634C60.9844 51.9634 61.2468 51.244 61.2468 50.6273C61.2468 50.0107 60.9844 49.2913 60.2191 49.2913C59.4538 49.2913 59.1914 50.0313 59.1914 50.6273C59.1914 51.2234 59.4538 51.9634 60.2191 51.9634Z" fill="#3D3D3D"/>
<path d="M8.3091 31.717C8.3091 32.1281 7.98111 32.4981 7.50006 32.4981C6.66915 32.4981 6.40676 31.5732 4.52627 31.5732C3.14871 31.5732 2.14287 32.3953 2.14287 33.5875C2.14287 36.7118 9.29308 35.2113 9.29308 40.0006C9.29308 42.3438 7.47819 44.4815 4.19828 44.4815C2.20847 44.4815 0 43.7621 0 42.7755C0 42.3027 0.262391 41.8711 0.787176 41.8711C1.42129 41.8711 2.3178 42.9605 4.22015 42.9605C6.14436 42.9605 7.30326 41.6449 7.30326 40.0828C7.30326 36.7118 0.153062 38.3562 0.153062 33.7108C0.153062 32.0665 1.81488 30.0727 4.59187 30.0727C6.47235 30.0727 8.3091 30.8126 8.3091 31.717Z" fill="#3D3D3D"/>
<path d="M19.6576 43.6182C19.6576 44.2348 19.1547 44.4815 18.7829 44.4815C18.4112 44.4815 17.9083 44.2348 17.9083 43.6182V42.8782H17.8646C17.0555 43.9471 16.0059 44.4609 14.8033 44.4609C11.6327 44.4609 9.83972 41.8505 9.83972 39.055C9.83972 36.2391 11.6109 33.6492 14.8033 33.6492C16.0934 33.6492 17.0118 34.163 17.8646 35.0674H17.9083V34.5125C17.9083 33.8958 18.3894 33.6492 18.7829 33.6492C19.1328 33.6492 19.6576 33.8958 19.6576 34.5125V43.6182ZM14.8033 42.9604C17.0993 42.9604 17.8864 40.8433 17.8864 39.055C17.8864 37.2668 17.0774 35.1497 14.8033 35.1497C12.5074 35.1497 11.7202 37.2668 11.7202 39.055C11.7202 40.8639 12.5292 42.9604 14.8033 42.9604Z" fill="#3D3D3D"/>
<path d="M21.5599 29.9288C21.5599 29.3533 21.9098 28.9833 22.5002 28.9833C23.0687 28.9833 23.4404 29.3327 23.4404 29.9288V35.088H23.4841C23.9652 34.4303 25.0148 33.6492 26.4798 33.6492C29.5192 33.6492 31.2903 36.2596 31.2903 39.0551C31.2903 41.8711 29.541 44.4609 26.4798 44.4609C24.9929 44.4609 24.0089 43.9676 23.4841 43.0016H23.4404V43.5154C23.4404 44.091 23.0906 44.4404 22.5002 44.4404C21.9317 44.4404 21.5599 44.091 21.5599 43.5154V29.9288ZM26.3267 42.9605C28.6227 42.9605 29.4099 40.8433 29.4099 39.0551C29.4099 37.2668 28.6008 35.1497 26.3267 35.1497C24.0308 35.1497 23.2436 37.2668 23.2436 39.0551C23.2436 40.8639 24.0308 42.9605 26.3267 42.9605Z" fill="#3D3D3D"/>
<path d="M33.5426 30.0727C34.1767 30.0727 34.6796 30.5454 34.6796 31.1415C34.6796 31.7376 34.1767 32.2104 33.5426 32.2104C32.9084 32.2104 32.4055 31.7376 32.4055 31.1415C32.4055 30.5454 32.9084 30.0727 33.5426 30.0727ZM34.4828 43.536C34.4828 44.1115 34.1329 44.4815 33.5426 44.4815C32.974 44.4815 32.6023 44.1321 32.6023 43.536V34.5741C32.6023 33.9986 32.9522 33.6286 33.5426 33.6286C34.1111 33.6286 34.4828 33.9781 34.4828 34.5741V43.536Z" fill="#3D3D3D"/>
<path d="M35.9041 31.6348C35.9041 30.6482 36.5819 30.0727 37.5003 30.0727C37.8939 30.0727 38.5499 30.381 38.8341 30.7304L45.547 39.1578H45.5907V31.6348C45.5907 30.6482 46.2686 30.0727 47.187 30.0727C48.1053 30.0727 48.7832 30.6276 48.7832 31.6348V42.9399C48.7832 43.9265 48.1053 44.5021 47.187 44.5021C46.7934 44.5021 46.1592 44.1937 45.8531 43.8443L39.1184 35.4991H39.0746V42.9193C39.0746 43.906 38.3968 44.4815 37.4784 44.4815C36.56 44.4815 35.8822 43.9265 35.8822 42.9193V31.6348H35.9041Z" fill="#E50E0E"/>
<path d="M60.2847 39.0962C60.2847 42.0766 58.0981 44.6048 54.8182 44.6048C51.5383 44.6048 49.3517 42.0766 49.3517 39.0962C49.3517 36.198 51.6039 33.5464 54.8182 33.5464C58.0325 33.5259 60.2847 36.1774 60.2847 39.0962ZM52.4129 39.0962C52.4129 40.4733 53.1782 41.9738 54.8182 41.9738C56.48 41.9738 57.2235 40.4528 57.2235 39.0962C57.2235 37.719 56.48 36.1774 54.8182 36.1774C53.1564 36.1569 52.4129 37.719 52.4129 39.0962Z" fill="#E50E0E"/>
<path d="M60.5471 36.1568C60.3284 35.5813 60.2191 35.2319 60.2191 34.8002C60.2191 34.163 60.8532 33.6492 61.7497 33.6492C62.4932 33.6492 63.018 34.1014 63.1929 34.7797L64.9422 40.2472H64.9859L66.7571 34.903C66.9976 34.1219 67.4131 33.6492 68.3096 33.6492C69.2061 33.6492 69.6215 34.1219 69.862 34.903L71.6332 40.2472H71.6769L73.4262 34.7797C73.6012 34.1014 74.1259 33.6492 74.8694 33.6492C75.7659 33.6492 76.4 34.163 76.4 35.0469C76.4 35.3758 76.2469 35.6841 76.0939 36.1157L73.4918 43.0221C73.1638 43.8648 72.639 44.4815 71.6551 44.4815C70.7148 44.4815 70.1682 43.9882 69.9058 43.1454L68.3314 38.5206H68.2877L66.7133 43.1454C66.4291 43.9882 65.8824 44.4815 64.9641 44.4815C63.9801 44.4815 63.4334 43.8648 63.1273 43.0221L60.5471 36.1568Z" fill="#E50E0E"/>
</svg>
